<?xml version="1.0" encoding="utf-8"?>
<!-- Generator: Adobe Illustrator 17.0.0, SVG Export Plug-In . SVG Version: 6.00 Build 0)  -->
<!DOCTYPE svg PUBLIC "-//W3C//DTD SVG 1.1//EN" "http://www.w3.org/Graphics/SVG/1.1/DTD/svg11.dtd">
<svg version="1.1" id="Layer_1" xmlns="http://www.w3.org/2000/svg" xmlns:xlink="http://www.w3.org/1999/xlink" x="0px" y="0px"
	 width="960px" height="560px" viewBox="0 0 960 560" style="enable-background:new 0 0 960 560;" xml:space="preserve">
<style type="text/css">
	.st0{fill:#ED1C24;}
</style>
<g>
	<path d="M63.567,32.375h4.89c3.42,0,4.89,1.59,4.89,4.83v1.29c0,2.16-0.69,3.54-2.16,4.14v0.06c1.65,0.51,2.19,2.07,2.19,4.44v3.69
		c0,1.02,0.03,1.77,0.36,2.55h-3.36c-0.18-0.54-0.3-0.87-0.3-2.58v-3.84c0-1.95-0.57-2.58-2.07-2.58h-1.14v9h-3.3V32.375z
		 M68.067,41.375c1.23,0,1.979-0.54,1.979-2.22v-1.62c0-1.5-0.51-2.16-1.68-2.16h-1.5v6H68.067z"/>
	<path d="M75.657,32.375h9v3h-5.7v5.55h4.53v3h-4.53v6.45h5.7v3h-9V32.375z"/>
	<path d="M89.126,35.375h-3.45v-3h10.2v3h-3.45v18h-3.3V35.375z"/>
	<path d="M97.467,32.375h4.89c3.42,0,4.89,1.59,4.89,4.83v1.29c0,2.16-0.69,3.54-2.16,4.14v0.06c1.65,0.51,2.19,2.07,2.19,4.44v3.69
		c0,1.02,0.03,1.77,0.36,2.55h-3.36c-0.18-0.54-0.3-0.87-0.3-2.58v-3.84c0-1.95-0.57-2.58-2.07-2.58h-1.14v9h-3.3V32.375z
		 M101.967,41.375c1.229,0,1.979-0.54,1.979-2.22v-1.62c0-1.5-0.51-2.16-1.68-2.16h-1.5v6H101.967z"/>
	<path d="M109.316,48.395v-11.04c0-3.36,1.77-5.28,5.01-5.28c3.24,0,5.01,1.92,5.01,5.28v11.04c0,3.36-1.77,5.28-5.01,5.28
		C111.086,53.674,109.316,51.754,109.316,48.395z M116.036,48.604V37.145c0-1.5-0.66-2.07-1.71-2.07c-1.05,0-1.709,0.57-1.709,2.07
		v11.459c0,1.5,0.66,2.07,1.709,2.07C115.376,50.675,116.036,50.104,116.036,48.604z"/>
	<path d="M121.316,48.395v-11.04c0-3.36,1.68-5.28,4.92-5.28s4.92,1.92,4.92,5.28v1.8h-3.12v-2.01c0-1.5-0.66-2.07-1.709-2.07
		c-1.05,0-1.71,0.57-1.71,2.07v11.49c0,1.5,0.66,2.04,1.71,2.04c1.05,0,1.709-0.54,1.709-2.04v-4.11h-1.65v-3h4.77v6.87
		c0,3.36-1.68,5.28-4.92,5.28S121.316,51.754,121.316,48.395z"/>
	<path d="M135.836,32.375h4.47l3.42,20.999h-3.3l-0.6-4.17v0.06h-3.75l-0.6,4.11h-3.06L135.836,32.375z M139.436,46.415l-1.47-10.38
		h-0.06l-1.44,10.38H139.436z"/>
	<path d="M145.316,32.375h4.71l2.1,15.029h0.06l2.1-15.029h4.709v20.999h-3.12V37.475h-0.06l-2.4,15.899h-2.76l-2.4-15.899h-0.06
		v15.899h-2.88V32.375z"/>
	<path d="M161.456,32.375h3.3v20.999h-3.3V32.375z"/>
	<path d="M167.215,32.375h4.14l3.21,12.569h0.06V32.375h2.94v20.999h-3.39l-3.959-15.33h-0.06v15.33h-2.94V32.375z"/>
	<path d="M179.785,48.395v-11.04c0-3.36,1.68-5.28,4.92-5.28s4.92,1.92,4.92,5.28v1.8h-3.12v-2.01c0-1.5-0.66-2.07-1.709-2.07
		c-1.05,0-1.71,0.57-1.71,2.07v11.49c0,1.5,0.66,2.04,1.71,2.04c1.05,0,1.709-0.54,1.709-2.04v-4.11h-1.65v-3h4.77v6.87
		c0,3.36-1.68,5.28-4.92,5.28S179.785,51.754,179.785,48.395z"/>
	<path class="st0" d="M93.342,77.615l-1.53-3.15c2.14-1.42,4.07-2.13,5.79-2.13c1.44,0,2.16,0.81,2.16,2.43
		c0,0.46-0.275,1.865-0.825,4.215c-0.55,2.35-0.825,4.145-0.825,5.385c0,1.24,0.27,2.16,0.81,2.76c-1.121,0.82-2.291,1.23-3.51,1.23
		c-1.22,0-2.085-0.4-2.595-1.2c-0.51-0.8-0.765-1.97-0.765-3.51c-1.08,0.32-2.2,0.48-3.36,0.48c-2.72,0-4.916-0.84-6.585-2.52
		s-2.505-4.16-2.505-7.44c0-1.4,0.3-2.825,0.9-4.275c0.6-1.45,1.45-2.795,2.55-4.035c1.1-1.24,2.535-2.255,4.305-3.045
		s3.6-1.185,5.49-1.185s3.37,0.35,4.44,1.05c1.07,0.701,1.605,1.67,1.605,2.91c0,1.24-0.405,2.205-1.215,2.895
		s-1.735,1.035-2.775,1.035c-1.041,0-1.976-0.225-2.805-0.675c-0.83-0.45-1.495-1.095-1.995-1.935c-1.08,0.521-2.01,1.541-2.79,3.06
		c-0.78,1.521-1.17,3.11-1.17,4.77c0,1.661,0.325,2.905,0.975,3.735c0.649,0.83,1.465,1.245,2.445,1.245
		C90.981,79.714,92.242,79.015,93.342,77.615z"/>
	<path class="st0" d="M107.441,84.154c-1.3,0-2.23-0.375-2.79-1.125c-0.56-0.75-0.84-1.87-0.84-3.36c0-1.49,0.63-5.715,1.89-12.675
		l-1.59-3.21c2.26-1.46,4.32-2.19,6.18-2.19c1.54,0,2.31,0.94,2.31,2.82c0,0.62-0.386,2.925-1.155,6.915
		c-0.77,3.99-1.155,6.365-1.155,7.125c0,1.94,0.3,3.39,0.9,4.35C109.991,83.705,108.741,84.154,107.441,84.154z"/>
	<path class="st0" d="M120.431,84.154c-1.3,0-1.95,0-1.95,0s-0.28-0.375-0.84-1.125c-0.56-0.75-0.84-1.87-0.84-3.36
		c0-1.49,0.63-5.715,1.89-12.675l-1.59-3.21c2.26-1.46,4.32-2.19,6.18-2.19c1.18,0,1.91,0.56,2.19,1.68
		c2.04-0.06,4.759-0.57,8.16-1.53c0.16,0.9,0.24,1.66,0.24,2.28c0,1.28-0.485,2.285-1.455,3.015c-0.97,0.73-2.095,1.095-3.375,1.095
		c-1.28,0-2.561-0.31-3.84-0.93l-0.27,1.47c-0.14,0.78-0.371,1.97-0.69,3.57c0.68,0.16,1.32,0.24,1.92,0.24
		c0.82-0.16,1.72-0.39,2.7-0.69c0.1,0.34,0.15,0.896,0.15,1.665c0,0.77-0.31,1.385-0.93,1.845c-0.62,0.46-1.32,0.69-2.1,0.69
		s-1.57-0.09-2.37-0.27c-0.22,1.26-0.33,2.17-0.33,2.73c0,1.94,0.3,3.39,0.9,4.35C122.981,83.705,121.731,84.154,120.431,84.154z"/>
	<path class="st0" d="M134.561,66.814c0-1.62,0.42-2.84,1.26-3.66c0.84-0.82,1.845-1.23,3.015-1.23s2.765,0.2,4.785,0.6
		c2.02,0.4,3.54,0.61,4.56,0.63c1.7-0.319,3.32-0.709,4.86-1.17c0.16,0.521,0.24,1.17,0.24,1.95c0,1.62-0.465,2.84-1.395,3.66
		c-0.93,0.82-2.115,1.23-3.555,1.23c-0.36,0-0.84-0.02-1.44-0.06c-1.101,5.78-1.65,9.01-1.65,9.69c0,1.94,0.3,3.39,0.9,4.35
		c-1.2,0.9-2.45,1.35-3.75,1.35c-1.3,0-2.23-0.375-2.79-1.125c-0.561-0.75-0.84-1.87-0.84-3.36c0-1.49,0.58-5.465,1.74-11.925
		c-2.26,0.3-4.16,0.64-5.7,1.02C134.64,68.265,134.561,67.615,134.561,66.814z"/>
	<path class="st0" d="M165.94,61.625c2.64,0,4.62,0.305,5.94,0.915c1.32,0.61,1.98,1.58,1.98,2.91s-0.405,2.34-1.215,3.03
		s-1.735,1.035-2.775,1.035c-1.04,0-1.976-0.265-2.805-0.795c-0.83-0.53-1.405-1.235-1.725-2.115c-0.74,0-1.445,0.245-2.115,0.735
		c-0.67,0.49-1.095,1.125-1.275,1.905c3.96,0.96,6.799,2.08,8.52,3.36c1.72,1.28,2.58,2.92,2.58,4.92c0,2-0.905,3.6-2.715,4.8
		c-1.81,1.2-4.25,1.8-7.32,1.8c-3.07,0-5.246-0.42-6.525-1.26c-1.28-0.84-1.92-1.95-1.92-3.33c0-1.38,0.43-2.65,1.29-3.81
		c0.42,0.9,1.225,1.71,2.415,2.43c1.19,0.72,2.365,1.08,3.525,1.08c2.14,0,3.5-0.68,4.08-2.04c-3.32-0.439-5.85-1.365-7.59-2.775
		c-1.74-1.41-2.61-3.115-2.61-5.115c0-1.34,0.36-2.535,1.08-3.585c0.72-1.05,1.64-1.855,2.76-2.415
		C161.72,62.185,163.86,61.625,165.94,61.625z"/>
</g>
</svg>
