<?xml version="1.0" encoding="utf-8"?>
<!-- Generator: Adobe Illustrator 17.0.0, SVG Export Plug-In . SVG Version: 6.00 Build 0)  -->
<!DOCTYPE svg PUBLIC "-//W3C//DTD SVG 1.1//EN" "http://www.w3.org/Graphics/SVG/1.1/DTD/svg11.dtd">
<svg version="1.1" id="Layer_1" xmlns="http://www.w3.org/2000/svg" xmlns:xlink="http://www.w3.org/1999/xlink" x="0px" y="0px"
	 width="126px" height="56.26px" viewBox="0 0 126 56.26" enable-background="new 0 0 126 56.26" xml:space="preserve">
<g>
	<path d="M0,0.3h4.887c3.418,0,4.888,1.589,4.888,4.827v1.289c0,2.159-0.69,3.538-2.159,4.138v0.06
		c1.649,0.51,2.189,2.069,2.189,4.438v3.688c0,1.02,0.03,1.769,0.36,2.549H6.806c-0.18-0.54-0.3-0.87-0.3-2.579v-3.838
		c0-1.949-0.57-2.578-2.069-2.578h-1.14v8.995H0V0.3z M4.498,9.296c1.229,0,1.979-0.54,1.979-2.219V5.457
		c0-1.499-0.51-2.159-1.679-2.159H3.298v5.997H4.498z"/>
	<path d="M12.084,0.3h8.995v2.998h-5.697v5.547h4.528v2.999h-4.528v6.447h5.697v2.999h-8.995V0.3z"/>
	<path d="M25.548,3.298h-3.449V0.3h10.195v2.998h-3.448V21.29h-3.298V3.298z"/>
	<path d="M33.884,0.3h4.887c3.418,0,4.888,1.589,4.888,4.827v1.289c0,2.159-0.69,3.538-2.159,4.138v0.06
		c1.649,0.51,2.189,2.069,2.189,4.438v3.688c0,1.02,0.03,1.769,0.36,2.549h-3.358c-0.18-0.54-0.3-0.87-0.3-2.579v-3.838
		c0-1.949-0.57-2.578-2.069-2.578h-1.14v8.995h-3.298V0.3z M38.382,9.296c1.229,0,1.979-0.54,1.979-2.219V5.457
		c0-1.499-0.51-2.159-1.679-2.159h-1.499v5.997H38.382z"/>
	<path d="M45.729,16.312V5.277C45.729,1.919,47.498,0,50.736,0c3.239,0,5.008,1.919,5.008,5.277v11.035
		c0,3.358-1.769,5.277-5.008,5.277C47.498,21.589,45.729,19.67,45.729,16.312z M52.445,16.522V5.068
		c0-1.499-0.659-2.069-1.709-2.069c-1.049,0-1.709,0.57-1.709,2.069v11.454c0,1.499,0.659,2.069,1.709,2.069
		C51.786,18.591,52.445,18.021,52.445,16.522z"/>
	<path d="M57.723,16.312V5.277C57.723,1.919,59.402,0,62.64,0c3.238,0,4.918,1.919,4.918,5.277v1.799h-3.119V5.068
		c0-1.499-0.659-2.069-1.709-2.069c-1.05,0-1.709,0.57-1.709,2.069v11.484c0,1.499,0.659,2.039,1.709,2.039
		c1.049,0,1.709-0.54,1.709-2.039v-4.108H62.79V9.445h4.768v6.866c0,3.358-1.679,5.277-4.918,5.277
		C59.402,21.589,57.723,19.67,57.723,16.312z"/>
	<path d="M72.236,0.3h4.468l3.418,20.989h-3.298l-0.6-4.168v0.06h-3.748l-0.6,4.108h-3.059L72.236,0.3z M75.834,14.333l-1.47-10.375
		h-0.06l-1.439,10.375H75.834z"/>
	<path d="M81.712,0.3h4.708l2.099,15.022h0.06L90.677,0.3h4.707V21.29h-3.118V5.397h-0.06L89.808,21.29h-2.758L84.65,5.397h-0.06
		V21.29h-2.879V0.3z"/>
	<path d="M97.844,0.3h3.298V21.29h-3.298V0.3z"/>
	<path d="M103.601,0.3h4.138l3.208,12.564h0.06V0.3h2.939V21.29h-3.389L106.6,5.967h-0.06V21.29h-2.939V0.3z"/>
	<path d="M116.165,16.312V5.277c0-3.358,1.679-5.277,4.918-5.277S126,1.919,126,5.277v1.799h-3.119V5.068
		c0-1.499-0.659-2.069-1.709-2.069c-1.05,0-1.709,0.57-1.709,2.069v11.484c0,1.499,0.659,2.039,1.709,2.039
		c1.049,0,1.709-0.54,1.709-2.039v-4.108h-1.649V9.445H126v6.866c0,3.358-1.679,5.277-4.918,5.277S116.165,19.67,116.165,16.312z"/>
	<path fill="#ED1C24" d="M29.761,45.519l-1.53-3.149c2.139-1.419,4.068-2.129,5.787-2.129c1.439,0,2.159,0.81,2.159,2.429
		c0,0.46-0.275,1.864-0.825,4.213c-0.55,2.349-0.824,4.143-0.824,5.383c0,1.239,0.27,2.159,0.81,2.759
		c-1.12,0.819-2.289,1.229-3.509,1.229c-1.22,0-2.084-0.4-2.594-1.2c-0.51-0.799-0.765-1.969-0.765-3.508
		c-1.08,0.32-2.199,0.48-3.358,0.48c-2.719,0-4.913-0.839-6.582-2.519c-1.669-1.679-2.504-4.158-2.504-7.437
		c0-1.399,0.3-2.823,0.899-4.273c0.6-1.45,1.45-2.794,2.549-4.033c1.099-1.239,2.534-2.254,4.303-3.044s3.598-1.185,5.488-1.185
		c1.889,0,3.368,0.35,4.438,1.049c1.069,0.7,1.604,1.67,1.604,2.909c0,1.24-0.405,2.204-1.214,2.894s-1.735,1.035-2.774,1.035
		c-1.04,0-1.975-0.225-2.804-0.675c-0.83-0.45-1.494-1.094-1.994-1.934c-1.08,0.52-2.009,1.54-2.789,3.059
		c-0.779,1.52-1.169,3.109-1.169,4.768c0,1.66,0.325,2.904,0.975,3.734c0.649,0.83,1.464,1.244,2.444,1.244
		C27.402,47.617,28.662,46.918,29.761,45.519z"/>
	<path fill="#ED1C24" d="M43.854,52.055c-1.3,0-2.229-0.375-2.789-1.124c-0.56-0.75-0.839-1.869-0.839-3.358
		c0-1.489,0.63-5.712,1.889-12.669l-1.589-3.208c2.259-1.459,4.318-2.189,6.177-2.189c1.539,0,2.309,0.94,2.309,2.819
		c0,0.62-0.386,2.923-1.155,6.912c-0.77,3.988-1.154,6.362-1.154,7.122c0,1.939,0.3,3.389,0.899,4.348
		C46.403,51.606,45.154,52.055,43.854,52.055z"/>
	<path fill="#ED1C24" d="M56.838,52.055c-1.3,0-1.949,0-1.949,0s-0.28-0.375-0.839-1.124c-0.56-0.75-0.84-1.869-0.84-3.358
		c0-1.489,0.63-5.712,1.889-12.669l-1.589-3.208c2.259-1.459,4.318-2.189,6.177-2.189c1.18,0,1.909,0.56,2.189,1.679
		c2.039-0.06,4.757-0.57,8.156-1.529c0.16,0.899,0.24,1.659,0.24,2.279c0,1.28-0.485,2.284-1.454,3.014
		c-0.97,0.73-2.094,1.094-3.373,1.094c-1.28,0-2.559-0.309-3.838-0.929l-0.27,1.469c-0.14,0.78-0.37,1.969-0.69,3.569
		c0.679,0.16,1.319,0.24,1.919,0.24c0.819-0.16,1.719-0.389,2.698-0.69c0.1,0.34,0.15,0.895,0.15,1.664
		c0,0.77-0.31,1.385-0.929,1.844c-0.62,0.46-1.32,0.69-2.099,0.69c-0.779,0-1.57-0.09-2.369-0.27c-0.22,1.259-0.33,2.169-0.33,2.729
		c0,1.939,0.3,3.389,0.9,4.348C59.387,51.606,58.137,52.055,56.838,52.055z"/>
	<path fill="#ED1C24" d="M70.961,34.723c0-1.619,0.42-2.839,1.259-3.658c0.84-0.819,1.844-1.229,3.014-1.229s2.763,0.2,4.783,0.6
		c2.019,0.4,3.538,0.61,4.557,0.63c1.699-0.319,3.318-0.709,4.858-1.169c0.16,0.52,0.24,1.169,0.24,1.949
		c0,1.619-0.465,2.839-1.394,3.658c-0.929,0.82-2.114,1.229-3.553,1.229c-0.36,0-0.84-0.02-1.439-0.06
		c-1.1,5.777-1.65,9.006-1.65,9.686c0,1.939,0.3,3.389,0.9,4.348c-1.2,0.899-2.449,1.349-3.748,1.349
		c-1.3,0-2.229-0.375-2.789-1.124c-0.56-0.75-0.84-1.869-0.84-3.358c0-1.489,0.58-5.462,1.739-11.919
		c-2.259,0.3-4.158,0.64-5.698,1.02C71.041,36.173,70.961,35.523,70.961,34.723z"/>
	<path fill="#ED1C24" d="M102.326,29.536c2.639,0,4.618,0.305,5.937,0.915c1.32,0.61,1.979,1.579,1.979,2.909
		s-0.405,2.339-1.214,3.028c-0.81,0.69-1.735,1.035-2.774,1.035c-1.04,0-1.975-0.265-2.804-0.795
		c-0.83-0.53-1.405-1.234-1.724-2.114c-0.739,0-1.444,0.245-2.114,0.735c-0.67,0.49-1.095,1.124-1.274,1.904
		c3.958,0.96,6.796,2.079,8.516,3.358c1.719,1.28,2.578,2.919,2.578,4.918c0,2-0.904,3.598-2.714,4.798
		c-1.809,1.199-4.248,1.799-7.316,1.799c-3.069,0-5.243-0.42-6.522-1.259c-1.28-0.84-1.92-1.949-1.92-3.329
		c0-1.38,0.43-2.649,1.289-3.808c0.42,0.899,1.225,1.709,2.414,2.429c1.189,0.72,2.364,1.08,3.523,1.08
		c2.139,0,3.498-0.679,4.078-2.039c-3.318-0.439-5.847-1.364-7.586-2.774c-1.739-1.41-2.609-3.113-2.609-5.112
		c0-1.339,0.36-2.534,1.08-3.583c0.719-1.05,1.639-1.854,2.759-2.414C98.108,30.096,100.247,29.536,102.326,29.536z"/>
</g>
</svg>
