<?xml version="1.0" encoding="utf-8"?>
<!-- Generator: Adobe Illustrator 17.0.0, SVG Export Plug-In . SVG Version: 6.00 Build 0)  -->
<!DOCTYPE svg PUBLIC "-//W3C//DTD SVG 1.1//EN" "http://www.w3.org/Graphics/SVG/1.1/DTD/svg11.dtd">
<svg version="1.1" id="Layer_1" xmlns="http://www.w3.org/2000/svg" xmlns:xlink="http://www.w3.org/1999/xlink" x="0px" y="0px"
	 width="107px" height="39px" viewBox="0 0 107 39" enable-background="new 0 0 107 39" xml:space="preserve">
<g>
	<path d="M0,13.749V3.252C0,0.871,0.934,0,3.27,0h0.721v1.913H3.418c-0.743,0-1.082,0.276-1.082,1.339v10.497
		c0,1.063,0.339,1.339,1.082,1.339h0.573V17H3.27C0.934,17,0,16.129,0,13.749z"/>
	<path d="M9.004,1.063h3.46c2.42,0,3.46,1.126,3.46,3.421v0.913c0,1.53-0.489,2.508-1.529,2.933v0.043
		c1.167,0.362,1.55,1.466,1.55,3.145v2.614c0,0.723,0.021,1.254,0.254,1.806h-2.377c-0.127-0.382-0.212-0.616-0.212-1.827v-2.72
		c0-1.381-0.403-1.828-1.465-1.828h-0.807v6.375H9.004V1.063z M12.188,7.438c0.871,0,1.401-0.383,1.401-1.573V4.718
		c0-1.063-0.361-1.53-1.189-1.53h-1.062v4.25H12.188z"/>
	<path d="M17.561,1.063h6.368v2.125h-4.033v3.931h3.206v2.125h-3.206v4.569h4.033v2.125h-6.368V1.063z"/>
	<path d="M27.095,3.188h-2.441V1.063h7.218v2.125H29.43v12.75h-2.335V3.188z"/>
	<path d="M32.999,1.063h3.46c2.42,0,3.46,1.126,3.46,3.421v0.913c0,1.53-0.489,2.508-1.529,2.933v0.043
		c1.167,0.362,1.55,1.466,1.55,3.145v2.614c0,0.723,0.021,1.254,0.254,1.806h-2.377c-0.127-0.382-0.212-0.616-0.212-1.827v-2.72
		c0-1.381-0.403-1.828-1.465-1.828h-0.807v6.375h-2.335V1.063z M36.183,7.438c0.871,0,1.401-0.383,1.401-1.573V4.718
		c0-1.063-0.361-1.53-1.189-1.53h-1.062v4.25H36.183z"/>
	<path d="M41.387,12.41V4.59c0-2.38,1.252-3.74,3.545-3.74c2.292,0,3.545,1.36,3.545,3.74v7.82c0,2.38-1.253,3.74-3.545,3.74
		C42.639,16.15,41.387,14.79,41.387,12.41z M46.142,12.559V4.441c0-1.063-0.467-1.466-1.21-1.466c-0.743,0-1.21,0.404-1.21,1.466
		v8.117c0,1.062,0.467,1.466,1.21,1.466C45.675,14.025,46.142,13.621,46.142,12.559z"/>
	<path d="M49.88,12.41V4.59c0-2.38,1.189-3.74,3.482-3.74c2.292,0,3.482,1.36,3.482,3.74v1.275h-2.208V4.441
		c0-1.063-0.467-1.466-1.21-1.466c-0.743,0-1.21,0.404-1.21,1.466v8.139c0,1.062,0.467,1.445,1.21,1.445
		c0.743,0,1.21-0.383,1.21-1.445V9.669h-1.167V7.544h3.375v4.866c0,2.38-1.189,3.74-3.482,3.74
		C51.069,16.15,49.88,14.79,49.88,12.41z"/>
	<path d="M60.158,1.063h3.163l2.42,14.875h-2.335l-0.424-2.954v0.043h-2.654l-0.425,2.911h-2.165L60.158,1.063z M62.705,11.008
		l-1.04-7.352h-0.042l-1.019,7.352H62.705z"/>
	<path d="M66.868,1.063h3.333l1.486,10.646h0.042l1.486-10.646h3.333v14.875h-2.207V4.675h-0.042L72.6,15.938h-1.953L68.949,4.675
		h-0.042v11.262h-2.038V1.063z"/>
	<path d="M78.292,1.063h2.335v14.875h-2.335V1.063z"/>
	<path d="M82.369,1.063h2.929l2.272,8.904h0.042V1.063h2.08v14.875h-2.399L84.492,5.079H84.45v10.859h-2.08V1.063z"/>
	<path d="M91.266,12.41V4.59c0-2.38,1.189-3.74,3.482-3.74c2.292,0,3.482,1.36,3.482,3.74v1.275h-2.208V4.441
		c0-1.063-0.467-1.466-1.21-1.466s-1.21,0.404-1.21,1.466v8.139c0,1.062,0.467,1.445,1.21,1.445s1.21-0.383,1.21-1.445V9.669h-1.167
		V7.544h3.375v4.866c0,2.38-1.189,3.74-3.482,3.74C92.455,16.15,91.266,14.79,91.266,12.41z"/>
	<path d="M103.009,15.088h0.573c0.743,0,1.082-0.276,1.082-1.339V3.252c0-1.063-0.339-1.339-1.082-1.339h-0.573V0h0.722
		C106.066,0,107,0.871,107,3.252v10.497c0,2.38-0.934,3.251-3.269,3.251h-0.722V15.088z"/>
</g>
<g>
	<path fill="#FA1530" d="M28.37,39c-0.767-0.033-1.455-0.101-2.065-0.203c-0.61-0.103-1.2-0.267-1.768-0.495
		c-0.568-0.228-1.046-0.515-1.432-0.861c-0.386-0.347-0.708-0.79-0.965-1.331c-0.257-0.541-0.414-1.168-0.472-1.881
		c0-0.125,0.065-0.198,0.195-0.218c0.039,0.013,0.104,0.02,0.195,0.02c0.539,0,1.357-0.013,2.455-0.04
		c1.097-0.026,1.916-0.04,2.455-0.04c0.136,0,0.243,0.045,0.322,0.133c0.078,0.089,0.141,0.198,0.19,0.327
		c0.049,0.129,0.107,0.257,0.175,0.386c0.068,0.129,0.185,0.238,0.351,0.327c0.166,0.089,0.378,0.134,0.638,0.134
		c0.318,0,0.599-0.091,0.843-0.273c0.243-0.181,0.365-0.427,0.365-0.737c0-0.205-0.104-0.393-0.312-0.564s-0.482-0.312-0.823-0.421
		c-0.341-0.109-0.666-0.201-0.974-0.277s-0.625-0.142-0.95-0.198c-0.324-0.056-0.513-0.091-0.565-0.104
		c-1.578-0.435-2.713-0.977-3.405-1.623c-0.692-0.647-1.038-1.531-1.038-2.654c0-0.792,0.143-1.503,0.429-2.134
		c0.285-0.63,0.659-1.145,1.12-1.544c0.461-0.4,1.007-0.733,1.637-1c0.63-0.267,1.267-0.455,1.91-0.564
		C27.522,23.055,28.188,23,28.876,23c1.825,0,3.28,0.344,4.365,1.03c0.396,0.403,0.687,0.708,0.872,0.916
		c0.185,0.208,0.364,0.45,0.536,0.727c0.172,0.278,0.292,0.55,0.36,0.817c0.068,0.267,0.116,0.596,0.141,0.985L34.8,27.832
		c-1.332,0.053-2.825,0.079-4.482,0.079c-0.208,0-0.375-0.023-0.502-0.069c-0.127-0.046-0.211-0.106-0.253-0.178
		c-0.042-0.072-0.084-0.149-0.127-0.228c-0.042-0.079-0.081-0.155-0.117-0.228c-0.036-0.072-0.111-0.132-0.224-0.178
		c-0.114-0.046-0.264-0.069-0.453-0.069c-0.052,0-0.135,0.01-0.248,0.03c-0.114,0.02-0.247,0.051-0.4,0.094
		s-0.284,0.109-0.394,0.198c-0.111,0.089-0.166,0.193-0.166,0.312c0,0.145,0.073,0.277,0.219,0.396
		c0.146,0.119,0.301,0.205,0.463,0.257c0.162,0.053,0.364,0.111,0.604,0.173c0.24,0.063,0.389,0.104,0.448,0.124
		c1.416,0.363,2.261,0.588,2.533,0.673c1.422,0.455,2.429,1.053,3.02,1.792c0.546,0.686,0.819,1.548,0.819,2.584
		c0,0.627-0.08,1.198-0.239,1.713c-0.159,0.515-0.368,0.951-0.628,1.307c-0.26,0.357-0.585,0.673-0.974,0.951
		c-0.39,0.277-0.784,0.498-1.184,0.663c-0.4,0.165-0.852,0.303-1.359,0.416c-0.506,0.112-0.972,0.193-1.398,0.242
		C29.332,38.936,28.87,38.974,28.37,39z"/>
	<path fill="#FA1530" d="M40.24,38.663c-0.182,0-0.393,0.005-0.633,0.015c-0.24,0.01-0.425,0.018-0.555,0.025
		c-0.13,0.006-0.278,0.005-0.443-0.005c-0.166-0.01-0.291-0.033-0.375-0.069c-0.084-0.036-0.174-0.091-0.268-0.163
		c-0.094-0.073-0.162-0.172-0.204-0.297c-0.042-0.125-0.078-0.281-0.107-0.466c-0.029-0.184-0.044-0.406-0.044-0.663
		c0-1.426,0.026-3.371,0.078-5.837c0.052-2.465,0.078-4.275,0.078-5.431c0-1.426,0.072-2.178,0.215-2.257h3.624
		c0.643,0,1.122,0.038,1.437,0.114c0.315,0.076,0.524,0.19,0.628,0.342c0.104,0.152,0.156,0.383,0.156,0.693
		c0,0.092-0.006,0.272-0.02,0.539c-0.013,0.267-0.02,0.49-0.02,0.668v0.455c0,0.211-0.01,0.528-0.029,0.951
		c-0.02,0.422-0.029,0.739-0.029,0.951v0.198c0.013,0.04,0.02,0.093,0.02,0.159h0.39c0.11,0,0.279,0.003,0.506,0.01
		s0.396,0.01,0.506,0.01c0.299,0,0.52-0.02,0.663-0.06v-4.119c0-0.33,0.016-0.566,0.049-0.708c0.032-0.142,0.078-0.231,0.137-0.267
		c0.058-0.036,0.165-0.055,0.321-0.055c0.084,0,0.221,0.003,0.409,0.01c0.188,0.006,0.325,0.01,0.409,0.01l0.721-0.03
		c0.487-0.02,0.922-0.03,1.306-0.03c1.766,0,2.65,0.198,2.65,0.594c0,0.106,0.003,0.257,0.01,0.456
		c0.006,0.198,0.01,0.35,0.01,0.455c0,0.231-0.003,0.568-0.01,1.01c-0.007,0.442-0.01,0.779-0.01,1.01
		c0,0.687,0.01,1.71,0.029,3.069c0.02,1.36,0.029,2.383,0.029,3.069c0,0.06-0.003,0.134-0.01,0.223
		c-0.007,0.089-0.01,0.147-0.01,0.174v0.475c0,0.422,0.006,0.739,0.02,0.951v0.218c-0.013,0.027-0.02,0.066-0.02,0.119
		c0,0.35,0.006,0.881,0.02,1.594c0.013,0.713,0.02,1.245,0.02,1.594c-0.046,0.238-0.669,0.357-1.871,0.357h-4.053l-0.292-0.416
		v-0.653c0-0.442,0.003-1.096,0.01-1.961c0.006-0.865,0.01-1.518,0.01-1.96c0-0.152-0.018-0.256-0.054-0.312
		c-0.036-0.056-0.109-0.084-0.219-0.084h-0.351c-0.442,0-0.845,0.026-1.208,0.079c0,0.548-0.007,1.371-0.02,2.47
		c-0.013,1.099-0.02,1.926-0.02,2.48c-0.078,0.198-0.89,0.297-2.436,0.297H40.24z"/>
	<path fill="#FA1530" d="M54.078,30.961v-1.089c0.065-0.924,0.263-1.767,0.594-2.529c0.331-0.763,0.752-1.404,1.262-1.926
		c0.51-0.521,1.099-0.962,1.768-1.321c0.669-0.36,1.369-0.622,2.1-0.787c0.73-0.165,1.486-0.247,2.265-0.247
		c0.429,0,0.875,0.037,1.34,0.109c0.464,0.072,0.956,0.188,1.476,0.347c0.519,0.158,1.018,0.391,1.495,0.698
		c0.478,0.307,0.872,0.668,1.184,1.084c0.643,0.799,1.109,1.635,1.398,2.51c0.289,0.875,0.433,1.847,0.433,2.916
		c0.02,2.231-0.461,4.026-1.442,5.386l-0.428,0.594c-0.377,0.528-0.916,0.968-1.617,1.321c-0.702,0.354-1.403,0.598-2.104,0.733
		c-0.701,0.135-1.409,0.203-2.124,0.203c-0.838,0-1.611-0.086-2.319-0.257c-0.708-0.172-1.318-0.403-1.831-0.693
		c-0.513-0.29-0.971-0.644-1.374-1.059c-0.403-0.416-0.732-0.855-0.989-1.317c-0.257-0.462-0.468-0.963-0.633-1.505
		c-0.166-0.541-0.283-1.069-0.351-1.584C54.112,32.03,54.078,31.502,54.078,30.961z M61.833,27.04c-0.266,0-0.505,0.063-0.716,0.188
		c-0.211,0.125-0.383,0.277-0.516,0.456c-0.133,0.178-0.248,0.418-0.346,0.718c-0.097,0.3-0.169,0.571-0.214,0.812
		c-0.045,0.241-0.081,0.544-0.107,0.911c-0.026,0.366-0.04,0.65-0.044,0.851c-0.003,0.201-0.004,0.46-0.004,0.777
		c0,0.304,0.011,0.593,0.034,0.866c0.023,0.274,0.072,0.564,0.146,0.871s0.172,0.574,0.292,0.802
		c0.12,0.228,0.286,0.419,0.497,0.574c0.211,0.155,0.453,0.239,0.726,0.252c0.285,0,0.539-0.048,0.76-0.144
		c0.221-0.095,0.406-0.218,0.555-0.366c0.149-0.149,0.276-0.348,0.38-0.599c0.104-0.251,0.183-0.492,0.239-0.723
		c0.055-0.231,0.098-0.518,0.127-0.861c0.029-0.343,0.047-0.639,0.054-0.886c0.006-0.247,0.01-0.559,0.01-0.936
		c0-0.277-0.008-0.535-0.024-0.772c-0.017-0.238-0.044-0.502-0.083-0.792c-0.039-0.29-0.104-0.546-0.195-0.767
		c-0.091-0.221-0.202-0.429-0.331-0.624c-0.13-0.195-0.301-0.345-0.512-0.451C62.347,27.093,62.105,27.04,61.833,27.04z"/>
	<path fill="#FA1530" d="M71.872,37.059V23.872c0-0.046,0.021-0.086,0.063-0.119c0.042-0.033,0.109-0.056,0.2-0.069
		c0.091-0.013,0.17-0.023,0.239-0.03c0.068-0.006,0.165-0.011,0.292-0.015c0.126-0.003,0.213-0.005,0.258-0.005h7.911
		c0.649,0,1.263,0.104,1.841,0.312c0.578,0.208,1.091,0.51,1.539,0.906c0.448,0.396,0.802,0.908,1.062,1.535
		c0.26,0.627,0.39,1.333,0.39,2.119c0,0.581-0.067,1.112-0.2,1.594c-0.133,0.482-0.308,0.893-0.526,1.233
		c-0.218,0.34-0.484,0.645-0.799,0.916c-0.315,0.271-0.637,0.488-0.965,0.653c-0.328,0.165-0.69,0.305-1.086,0.421
		c-0.396,0.116-0.762,0.2-1.096,0.252c-0.335,0.053-0.687,0.093-1.057,0.119h-1.87c-0.052,1.036-0.078,2.198-0.078,3.485v1.109
		c-0.02,0.238-0.13,0.357-0.331,0.357h-5.534C71.956,38.188,71.872,37.66,71.872,37.059z M77.366,30.129l0.312,0.435
		c0.266,0,0.521-0.02,0.765-0.06c0.243-0.039,0.483-0.109,0.716-0.208s0.435-0.226,0.604-0.381c0.169-0.155,0.305-0.353,0.409-0.594
		c0.104-0.24,0.156-0.513,0.156-0.817c0-0.231-0.031-0.437-0.093-0.619c-0.061-0.181-0.136-0.33-0.224-0.445
		c-0.088-0.116-0.208-0.216-0.361-0.302c-0.153-0.086-0.296-0.15-0.428-0.193c-0.133-0.043-0.302-0.076-0.507-0.099
		c-0.204-0.023-0.373-0.036-0.506-0.04c-0.133-0.003-0.303-0.005-0.511-0.005C77.477,26.908,77.366,28.017,77.366,30.129z"/>
</g>
</svg>
