<?xml version="1.0" encoding="utf-8"?>
<!-- Generator: Adobe Illustrator 17.0.0, SVG Export Plug-In . SVG Version: 6.00 Build 0)  -->
<!DOCTYPE svg PUBLIC "-//W3C//DTD SVG 1.1//EN" "http://www.w3.org/Graphics/SVG/1.1/DTD/svg11.dtd">
<svg version="1.1" xmlns="http://www.w3.org/2000/svg" xmlns:xlink="http://www.w3.org/1999/xlink" x="0px" y="0px"
	 width="620.906px" height="127px" viewBox="0 0 620.906 127" enable-background="new 0 0 620.906 127" xml:space="preserve">
<g id="Layer_1">
	<path fill="#CD0F19" d="M557.594,126.812c35.018,0,63.406-28.388,63.406-63.406S592.612,0,557.594,0L63.5,0.094L0.094,63.5
		L63.5,126.906L557.594,126.812z"/>
</g>
<g id="Layer_2">
	<g>
		<path fill="#FFFFFF" d="M92.04,44.8l6.42,20.7l13.8-20.7h11.34L115.98,88h-10.86l4.32-24.36l-9.24,14.52h-7.86l-4.08-14.52
			L83.94,88H73.14l7.62-43.2H92.04z"/>
		<path fill="#FFFFFF" d="M147.84,44.38c9.639,0,14.46,3.94,14.46,11.82c0,1.32-0.141,2.74-0.421,4.26l-2.1,12
			c-0.96,5.561-3.04,9.681-6.24,12.36s-7.7,4.02-13.5,4.02s-9.84-1.34-12.12-4.02c-1.56-1.84-2.34-4.381-2.34-7.62
			c0-1.44,0.159-3.021,0.48-4.74l2.1-12C130.039,49.741,136.599,44.38,147.84,44.38z M141.659,79.54c2,0,3.601-0.52,4.8-1.56
			c1.2-1.04,2.04-2.96,2.521-5.76l2.04-11.521c0.12-0.8,0.18-1.52,0.18-2.16c0-3.24-1.641-4.86-4.92-4.86
			c-4.12,0.081-6.58,2.42-7.38,7.02l-2.04,11.521c-0.16,1-0.24,2.039-0.24,3.119C136.619,78.141,138.3,79.54,141.659,79.54z"/>
		<path fill="#FFFFFF" d="M189.358,44.8c4.56,0,7.8,1,9.72,3c1.44,1.521,2.16,3.441,2.16,5.76c0,0.801-0.081,1.641-0.24,2.52
			l-0.84,4.68c-0.479,2.601-1.311,4.701-2.49,6.301s-2.489,2.74-3.93,3.42l5.46,17.52h-12.12l-5.04-16.141h-3.72L175.858,88h-11.521
			l7.62-43.2H189.358z M185.578,54.16h-4.5l-1.56,10.439h4.199c2.12,0,3.64-0.51,4.561-1.53c0.92-1.02,1.38-2.37,1.38-4.05
			C189.658,55.78,188.298,54.16,185.578,54.16z"/>
		<path fill="#FFFFFF" d="M233.817,88h-30.12l7.62-43.2h30.12l-1.68,9.36h-19.32l-1.38,8.1h15.96l-1.68,9.36h-15.96l-1.2,7.021
			h19.32L233.817,88z"/>
		<path fill="#FFFFFF" d="M275.396,74.859h-7.14L265.917,88h-10.801l7.62-43.2h18.3c4.521,0,7.74,1.041,9.66,3.12
			c1.4,1.601,2.101,3.641,2.101,6.12c0,0.84-0.081,1.72-0.24,2.64l-1.2,6.78c-0.6,3.321-2.36,6.051-5.28,8.19
			C283.156,73.791,279.597,74.859,275.396,74.859z M277.257,54.16h-5.4l-1.979,11.34h5.34c3.279,0,5.18-1.459,5.7-4.38l0.42-2.46
			c0.079-0.36,0.12-0.84,0.12-1.44c0-0.6-0.301-1.26-0.9-1.98C279.957,54.52,278.855,54.16,277.257,54.16z"/>
		<path fill="#FFFFFF" d="M318.416,44.8c4.56,0,7.8,1,9.72,3c1.44,1.521,2.16,3.441,2.16,5.76c0,0.801-0.081,1.641-0.24,2.52
			l-0.84,4.68c-0.479,2.601-1.311,4.701-2.49,6.301s-2.489,2.74-3.93,3.42l5.46,17.52h-12.12l-5.04-16.141h-3.72L304.916,88h-11.521
			l7.62-43.2H318.416z M314.636,54.16h-4.5l-1.56,10.439h4.199c2.12,0,3.64-0.51,4.561-1.53c0.92-1.02,1.38-2.37,1.38-4.05
			C318.716,55.78,317.355,54.16,314.636,54.16z"/>
		<path fill="#FFFFFF" d="M355.796,44.38c9.639,0,14.46,3.94,14.46,11.82c0,1.32-0.141,2.74-0.421,4.26l-2.1,12
			c-0.96,5.561-3.04,9.681-6.24,12.36s-7.7,4.02-13.5,4.02s-9.84-1.34-12.12-4.02c-1.56-1.84-2.34-4.381-2.34-7.62
			c0-1.44,0.159-3.021,0.48-4.74l2.1-12C337.995,49.741,344.555,44.38,355.796,44.38z M349.615,79.54c2,0,3.601-0.52,4.8-1.56
			c1.2-1.04,2.04-2.96,2.521-5.76l2.04-11.521c0.12-0.8,0.18-1.52,0.18-2.16c0-3.24-1.641-4.86-4.92-4.86
			c-4.12,0.081-6.58,2.42-7.38,7.02l-2.04,11.521c-0.16,1-0.24,2.039-0.24,3.119C344.575,78.141,346.256,79.54,349.615,79.54z"/>
		<path fill="#FFFFFF" d="M396.715,44.8c5.24,0,8.979,1.32,11.221,3.96c1.64,2.001,2.46,4.5,2.46,7.5c0,1.08-0.101,2.22-0.3,3.42
			l-2.341,13.38c-0.8,4.52-2.76,8.14-5.88,10.859c-3.12,2.721-7.16,4.08-12.12,4.08h-17.46l7.62-43.2H396.715z M392.936,54.16h-3.9
			l-4.26,24.48h5.7c1.879,0,3.35-0.511,4.41-1.531c1.059-1.02,1.789-2.689,2.189-5.01l1.74-9.84c0.159-0.879,0.24-1.68,0.24-2.4
			C399.056,56.061,397.016,54.16,392.936,54.16z"/>
		<path fill="#FFFFFF" d="M442.225,84.85c-3.18,2.661-7.67,3.99-13.47,3.99s-9.82-1.34-12.06-4.02c-1.601-1.84-2.4-4.381-2.4-7.62
			c0-1.44,0.159-3.021,0.48-4.74l4.859-27.66h10.8l-4.859,27.421c-0.16,1-0.24,2.039-0.24,3.119c0,2.801,1.68,4.2,5.04,4.2
			c2,0,3.6-0.52,4.8-1.56s2.04-2.96,2.521-5.76l4.859-27.421h10.8l-4.859,27.66C447.494,78.061,445.405,82.19,442.225,84.85z"/>
		<path fill="#FFFFFF" d="M469.074,88.84c-5.721,0-9.681-1.239-11.88-3.72c-1.521-1.76-2.28-4.22-2.28-7.38
			c0-1.359,0.14-2.82,0.42-4.381l2.46-13.799c1.8-10.12,8.3-15.18,19.5-15.18c4.64,0,8.16,0.99,10.56,2.97
			c2.4,1.98,3.601,4.69,3.601,8.13c0,1.6-0.23,3.19-0.69,4.77c-0.46,1.581-0.91,2.75-1.35,3.51l-0.66,1.2h-10.62
			c1.32-1.52,1.98-3.68,1.98-6.48c0-1.479-0.381-2.649-1.141-3.51c-0.76-0.86-1.88-1.29-3.359-1.29c-4.041,0-6.441,2.24-7.2,6.72
			l-2.101,12.12c-0.2,1.041-0.3,2.061-0.3,3.061c0,2.641,1.58,3.96,4.74,3.96c3.8,0,6.08-2.14,6.84-6.42h10.8l-0.3,1.739
			C486.493,84.181,480.153,88.84,469.074,88.84z"/>
		<path fill="#FFFFFF" d="M535.493,54.16h-14.76L514.793,88h-10.859l5.939-33.84h-14.819l1.68-9.36h40.439L535.493,54.16z"/>
		<path fill="#FFFFFF" d="M545.933,75.7c0,2.76,1.99,4.14,5.971,4.14c3.979,0,5.97-1.239,5.97-3.72c0-1.32-0.681-2.399-2.04-3.24
			c-1.36-0.84-3.011-1.539-4.95-2.101c-1.94-0.559-3.88-1.209-5.819-1.949c-1.941-0.74-3.591-1.899-4.95-3.48
			c-1.36-1.579-2.04-3.549-2.04-5.91c0-10.04,6.459-15.06,19.38-15.06c4.72,0,8.289,0.891,10.71,2.67
			c2.42,1.78,3.63,4.251,3.63,7.41c0,1.161-0.15,2.271-0.45,3.33c-0.3,1.06-0.61,1.81-0.93,2.25l-0.48,0.72h-10.619
			c0.879-0.919,1.319-2.079,1.319-3.48c0-2.6-1.7-3.9-5.1-3.9c-4.281,0-6.42,1.36-6.42,4.08c0,1.36,0.68,2.44,2.04,3.24
			c1.359,0.8,3.009,1.431,4.949,1.89c1.94,0.46,3.891,1.03,5.851,1.71c1.959,0.681,3.619,1.811,4.979,3.39
			c1.359,1.581,2.04,3.631,2.04,6.15c0,5.08-1.521,8.85-4.56,11.311c-3.04,2.46-7.721,3.689-14.04,3.689
			c-6.32,0-10.641-1.119-12.96-3.359c-1.721-1.681-2.58-4-2.58-6.961c0-1.119,0.12-2.34,0.36-3.66l0.18-0.959h10.8l-0.12,0.72
			C545.973,75.021,545.933,75.381,545.933,75.7z"/>
	</g>
</g>
</svg>
