<?xml version="1.0" encoding="utf-8"?>
<!-- Generator: Adobe Illustrator 17.0.0, SVG Export Plug-In . SVG Version: 6.00 Build 0)  -->
<!DOCTYPE svg PUBLIC "-//W3C//DTD SVG 1.1//EN" "http://www.w3.org/Graphics/SVG/1.1/DTD/svg11.dtd">
<svg version="1.1" id="Layer_1" xmlns="http://www.w3.org/2000/svg" xmlns:xlink="http://www.w3.org/1999/xlink" x="0px" y="0px"
	 width="127px" height="127px" viewBox="0 0 127 127" enable-background="new 0 0 127 127" xml:space="preserve">
<g>
	<circle fill="#CD0F19" cx="63.5" cy="63.5" r="63.406"/>
	<path fill="#FFFEFE" d="M53.507,67.99c3.564,4.666,6.98,9.131,10.385,13.604c0.692,0.909,1.63,1.796,0.971,3.093
		c-0.61,1.201-1.806,0.969-2.863,0.97c-10.436,0.007-20.873-0.042-31.309,0.04c-2.333,0.018-3.172-0.687-3.151-3.14
		c0.111-12.837,0.098-25.677,0.01-38.514c-0.016-2.311,0.541-3.27,3.055-3.188c5.378,0.176,10.768-0.032,16.149,0.072
		c11.657,0.227,18.156,11.366,12.692,21.659C58.157,65.015,56.135,66.668,53.507,67.99z"/>
	<path fill="#FFFEFE" d="M69.036,63.154c0-6.371,0.052-12.742-0.028-19.112c-0.029-2.298,0.725-3.257,3.17-3.181
		c5.042,0.156,10.093,0.02,15.139,0.053c10.453,0.068,15.992,9.325,11.23,18.715c-0.316,0.624-1.22,1.185,0.035,1.963
		c5.334,3.306,6.007,8.509,4.967,13.958c-1.069,5.603-5.221,8.513-10.536,9.485c-7.285,1.332-14.687,0.452-22.036,0.582
		c-1.801,0.032-1.944-1.445-1.943-2.854C69.039,76.226,69.036,69.69,69.036,63.154z"/>
</g>
</svg>
