<?xml version="1.0" encoding="utf-8"?>
<!-- Generator: Adobe Illustrator 17.0.0, SVG Export Plug-In . SVG Version: 6.00 Build 0)  -->
<!DOCTYPE svg PUBLIC "-//W3C//DTD SVG 1.1//EN" "http://www.w3.org/Graphics/SVG/1.1/DTD/svg11.dtd">
<svg version="1.1" id="Layer_1" xmlns="http://www.w3.org/2000/svg" xmlns:xlink="http://www.w3.org/1999/xlink" x="0px" y="0px"
	 width="127px" height="127px" viewBox="0 0 127 127" enable-background="new 0 0 127 127" xml:space="preserve">
<g>
	<path fill="#FDFDFD" d="M127.07,63.861C127.055,28.946,98.704,0.548,63.813,0.497C28.753,0.447,0.287,28.807,0.257,63.818
		c-0.03,35.045,28.361,63.484,63.385,63.492C98.673,127.318,127.085,98.897,127.07,63.861z"/>
	<path fill="#040404" d="M127.07,63.861c0.015,35.036-28.397,63.457-63.428,63.449C28.618,127.302,0.227,98.863,0.257,63.818
		C0.287,28.807,28.753,0.447,63.813,0.497C98.704,0.548,127.055,28.946,127.07,63.861z"/>
	<path fill="#FFFFFF" d="M74.79,54.429c5.245-2.775,10.473-4.303,16.083-4.383c10.354-0.148,14.981,5.086,14.385,15.455
		c-0.939,16.345-20.061,29.363-34.312,25.558C64.57,89.357,59.83,85.851,56.965,79.35c-1.756,8.676-7.953,11.174-15.147,12.027
		c-5.329,0.632-10.718,0.525-16.04-0.41c-2.891-0.508-5.606-1.45-7.649-3.731c-1.766-1.972-2.22-4.192-1.066-6.602
		c0.986-2.058,3.452-3.163,6.096-2.758c4.985,0.763,7.497,4.249,8.604,8.675c0.642,2.567,1.757,2.562,3.714,1.901
		c3.046-1.029,5.136-2.845,5.789-6.149c0.659-3.334-1.081-5.365-3.626-6.924c-3.117-1.909-6.379-3.587-9.452-5.561
		c-3.857-2.479-6.426-5.824-6.168-10.724c0.23-4.356,2.479-7.585,6.361-9.125c10.075-3.997,20.04-4.433,29.307,2.331
		c0.942,0.688,1.108,0.511,1.589-0.361c8.186-14.842,21.622-21.493,37.663-24.05c1.445-0.23,2.89-0.152,4.322,0.112
		c1.448,0.267,1.576,1.033,0.828,2.18c-1.183,1.813-3.013,2.418-4.994,2.705c-11.842,1.718-17.953,9.72-21.976,20.013
		C74.978,53.266,74.949,53.678,74.79,54.429z M69.578,75.011c-0.056,3.371,0.554,6.594,2.187,9.581
		c2.872,5.255,7.118,5.893,10.935,1.312c4.798-5.76,6.646-12.54,5.625-19.99c-0.463-3.379-1.93-6.187-5.527-7.243
		c-3.752-1.103-6.445,0.782-8.722,3.375C70.841,65.728,69.644,70.191,69.578,75.011z M56.108,60.315
		c-7.806,2.615-11.569-2.381-11.868-7.966c-0.027-0.51-0.043-1.021-0.053-1.531c-0.01-0.51-0.257-0.684-0.767-0.779
		c-2.1-0.39-5.745,1.569-6.844,3.737c-1.301,2.566-0.795,5.345,1.332,7.165c1.24,1.061,2.691,1.777,4.166,2.443
		c4.577,2.067,9.565,3.362,13.406,7.661C55.094,67.147,55.813,63.884,56.108,60.315z"/>
</g>
</svg>
